<svg id="Layer_1" data-name="Layer 1" xmlns="http://www.w3.org/2000/svg" viewBox="0 0 265.18 122.69"><defs><style>.cls-1,.cls-4{fill:#e56d26;}.cls-17,.cls-2{fill:#63bb46;}.cls-16,.cls-3{fill:#f04f54;}.cls-11,.cls-16,.cls-17,.cls-4{font-size:11.1px;font-family:Oswald-Medium, Oswald;font-weight:500;}.cls-4,.cls-9{letter-spacing:-0.02em;}.cls-5{letter-spacing:-0.02em;}.cls-6{letter-spacing:-0.02em;}.cls-7{letter-spacing:-0.03em;}.cls-8{letter-spacing:-0.03em;}.cls-10{letter-spacing:-0.03em;}.cls-11{fill:#384a82;letter-spacing:0.14em;}.cls-12{letter-spacing:0.14em;}.cls-13{letter-spacing:0.14em;}.cls-14{letter-spacing:0.13em;}.cls-15{letter-spacing:0.12em;}.cls-16{letter-spacing:-0.04em;}.cls-17{letter-spacing:-0.02em;}.cls-18{letter-spacing:-0.02em;}.cls-19{letter-spacing:-0.02em;}.cls-20{fill:none;stroke:#384a82;stroke-miterlimit:10;}</style></defs><title>CasosActivos</title><circle class="cls-1" cx="131.26" cy="42.89" r="3.88"/><circle class="cls-1" cx="101.44" cy="73.15" r="3.88"/><circle class="cls-2" cx="49.96" cy="43.76" r="3.88"/><circle class="cls-2" cx="54.76" cy="71.64" r="3.88"/><circle class="cls-2" cx="91.08" cy="39.88" r="3.88"/><circle class="cls-1" cx="112.22" cy="56.49" r="3.88"/><circle class="cls-1" cx="151.04" cy="73.15" r="3.88"/><circle class="cls-1" cx="169.57" cy="75.52" r="3.88"/><path class="cls-3" d="M226.52,58a2.88,2.88,0,1,1-2.89,2.88A2.88,2.88,0,0,1,226.52,58m0-1a3.88,3.88,0,1,0,3.88,3.88A3.89,3.89,0,0,0,226.52,57Z"/><path class="cls-3" d="M185.15,49.11A2.89,2.89,0,1,1,182.26,52a2.88,2.88,0,0,1,2.89-2.88m0-1A3.89,3.89,0,1,0,189,52a3.89,3.89,0,0,0-3.88-3.88Z"/><path class="cls-3" d="M211.32,58a2.88,2.88,0,1,1-2.89,2.88A2.88,2.88,0,0,1,211.32,58m0-1a3.88,3.88,0,1,0,3.88,3.88A3.89,3.89,0,0,0,211.32,57Z"/><circle class="cls-2" cx="91.08" cy="71.64" r="3.88"/><circle class="cls-2" cx="40.23" cy="64.78" r="3.88"/><circle class="cls-1" cx="137.73" cy="53.15" r="3.88"/><path class="cls-3" d="M190.14,35.14A2.89,2.89,0,1,1,187.26,38a2.9,2.9,0,0,1,2.88-2.89m0-1A3.89,3.89,0,1,0,194,38a3.89,3.89,0,0,0-3.89-3.89Z"/><path class="cls-3" d="M200,58a2.88,2.88,0,1,1-2.88,2.88A2.88,2.88,0,0,1,200,58m0-1a3.88,3.88,0,1,0,3.88,3.88A3.88,3.88,0,0,0,200,57Z"/><path class="cls-3" d="M219.08,47.86a2.89,2.89,0,1,1-2.88,2.89,2.9,2.9,0,0,1,2.88-2.89m0-1A3.89,3.89,0,1,0,223,50.75a3.89,3.89,0,0,0-3.89-3.89Z"/><circle class="cls-1" cx="154.61" cy="53.12" r="3.88"/><circle class="cls-1" cx="119.99" cy="63.87" r="3.88"/><circle class="cls-1" cx="113.08" cy="71.36" r="3.88"/><circle class="cls-2" cx="78.53" cy="50.5" r="3.88"/><circle class="cls-2" cx="61.76" cy="52.8" r="3.88"/><circle class="cls-2" cx="78.53" cy="74.32" r="3.88"/><path class="cls-3" d="M196.12,45.23a2.88,2.88,0,1,1-2.89,2.88,2.88,2.88,0,0,1,2.89-2.88m0-1A3.88,3.88,0,1,0,200,48.11a3.89,3.89,0,0,0-3.88-3.88Z"/><path class="cls-3" d="M219.08,68.45a2.89,2.89,0,1,1-2.88,2.89,2.9,2.9,0,0,1,2.88-2.89m0-1A3.89,3.89,0,1,0,223,71.34a3.89,3.89,0,0,0-3.89-3.89Z"/><path class="cls-3" d="M192.63,70.26a2.89,2.89,0,1,1-2.89,2.89,2.89,2.89,0,0,1,2.89-2.89m0-1a3.89,3.89,0,1,0,3.88,3.89,3.89,3.89,0,0,0-3.88-3.89Z"/><circle class="cls-1" cx="137.73" cy="78.2" r="3.88"/><circle class="cls-1" cx="143.84" cy="42.89" r="3.88"/><circle class="cls-1" cx="124.2" cy="53.15" r="3.88"/><circle class="cls-1" cx="131.26" cy="64.71" r="3.88"/><circle class="cls-1" cx="145.93" cy="62.84" r="3.88"/><circle class="cls-1" cx="116.11" cy="43.76" r="3.88"/><circle class="cls-1" cx="124.79" cy="75.15" r="3.88"/><path class="cls-3" d="M203.88,74.15A2.88,2.88,0,1,1,201,77a2.89,2.89,0,0,1,2.88-2.88m0-1A3.88,3.88,0,1,0,207.77,77a3.88,3.88,0,0,0-3.89-3.88Z"/><circle class="cls-1" cx="173.46" cy="39.14" r="3.88"/><circle class="cls-1" cx="154.92" cy="37.77" r="3.88"/><circle class="cls-1" cx="160.96" cy="64.78" r="3.88"/><circle class="cls-1" cx="169.57" cy="56.68" r="3.88"/><path class="cls-3" d="M208.15,45.23a2.88,2.88,0,1,1-2.88,2.88,2.88,2.88,0,0,1,2.88-2.88m0-1A3.88,3.88,0,1,0,212,48.11a3.88,3.88,0,0,0-3.88-3.88Z"/><circle class="cls-2" cx="50.87" cy="58.26" r="3.88"/><circle class="cls-2" cx="65.64" cy="75.24" r="3.88"/><path class="cls-3" d="M182.26,61.9a2.89,2.89,0,1,1-2.88,2.88,2.88,2.88,0,0,1,2.88-2.88m0-1a3.89,3.89,0,1,0,3.88,3.88,3.88,3.88,0,0,0-3.88-3.88Z"/><circle class="cls-2" cx="67.04" cy="63.87" r="3.88"/><circle class="cls-2" cx="69.03" cy="43.02" r="3.88"/><circle class="cls-2" cx="83.31" cy="60.66" r="3.88"/><circle class="cls-1" cx="166.07" cy="45.61" r="3.88"/><circle class="cls-1" cx="101.44" cy="46.77" r="3.88"/><circle class="cls-1" cx="101.44" cy="60.83" r="3.88"/><circle class="cls-2" cx="91.08" cy="53.15" r="3.88"/><text class="cls-4" transform="translate(118.67 98.99)">C<tspan class="cls-5" x="5.77" y="0">A</tspan><tspan class="cls-6" x="11.3" y="0">SO</tspan><tspan class="cls-7" x="22.59" y="0">S</tspan><tspan class="cls-8"><tspan x="-3.74" y="13.32">A</tspan><tspan class="cls-9" x="1.74" y="13.32">CTI</tspan><tspan class="cls-10" x="14.89" y="13.32">V</tspan><tspan class="cls-6" x="20.3" y="13.32">O</tspan><tspan class="cls-7" x="26.33" y="13.32">S</tspan></tspan></text><text class="cls-11" transform="translate(89.54 19.54)">C<tspan class="cls-12" x="7.55" y="0">A</tspan><tspan class="cls-13" x="14.86" y="0">SO</tspan><tspan class="cls-14" x="29.7" y="0">S</tspan><tspan class="cls-13" x="36.65" y="0"> </tspan><tspan class="cls-12" x="40.9" y="0">TO</tspan><tspan class="cls-15" x="54.95" y="0">T</tspan><tspan class="cls-12" x="61.05" y="0">AL</tspan><tspan x="74.54" y="0">E</tspan><tspan class="cls-14" x="80.85" y="0">S</tspan></text><text class="cls-16" transform="translate(180.03 98.99)">F<tspan class="cls-5" x="4.1" y="0">ALL</tspan><tspan class="cls-6" x="18.44" y="0">ECIDO</tspan><tspan class="cls-7" x="43.57" y="0">S</tspan></text><text class="cls-17" transform="translate(28.64 98.99)">R<tspan class="cls-18" x="5.98" y="0">ECU</tspan><tspan class="cls-5" x="22.35" y="0">P</tspan><tspan class="cls-18" x="27.93" y="0">ER</tspan><tspan class="cls-19" x="38.47" y="0">A</tspan><tspan class="cls-9" x="44" y="0">DO</tspan><tspan class="cls-7" x="55.99" y="0">S</tspan></text><line class="cls-20" x1="25.72" y1="26.18" x2="233.28" y2="26.18"/></svg>