<?xml version="1.0" encoding="utf-8"?>
<!-- Generator: Adobe Illustrator 22.1.0, SVG Export Plug-In . SVG Version: 6.00 Build 0)  -->
<svg version="1.1" id="Capa_1" xmlns="http://www.w3.org/2000/svg" xmlns:xlink="http://www.w3.org/1999/xlink" x="0px" y="0px"
	 viewBox="0 0 220 50" style="enable-background:new 0 0 220 50;" xml:space="preserve">
<g>
	<g>
		<path d="M40.4,27.2H9.7c-1.2,0-2.2-1-2.2-2.2v0c0-1.2,1-2.2,2.2-2.2h30.7c1.2,0,2.2,1,2.2,2.2v0C42.6,26.2,41.6,27.2,40.4,27.2z"
			/>
		<path d="M38.9,21.3H9.7c-1.2,0-2.2-1-2.2-2.2v0c0-1.2,1-2.2,2.2-2.2h29.2c1.2,0,2.2,1,2.2,2.2v0C41.1,20.3,40.1,21.3,38.9,21.3z"
			/>
		<path d="M36,15.4H9.7c-1.2,0-2.2-1-2.2-2.2v0c0-1.2,1-2.2,2.2-2.2H36c1.2,0,2.2,1,2.2,2.2v0C38.2,14.4,37.2,15.4,36,15.4z"/>
		<path d="M28.7,9.4h-19c-1.2,0-2.2-1-2.2-2.2v0C7.5,6,8.5,5,9.7,5h19c1.2,0,2.2,1,2.2,2.2v0C30.9,8.5,29.9,9.4,28.7,9.4z"/>
		<path d="M28.7,45h-19c-1.2,0-2.2-1-2.2-2.2v0c0-1.2,1-2.2,2.2-2.2h19c1.2,0,2.2,1,2.2,2.2v0C30.9,44,29.9,45,28.7,45z"/>
		<path d="M36,39.1H9.7c-1.2,0-2.2-1-2.2-2.2v0c0-1.2,1-2.2,2.2-2.2H36c1.2,0,2.2,1,2.2,2.2v0C38.2,38.1,37.2,39.1,36,39.1z"/>
		<path d="M38.9,33.1H9.7c-1.2,0-2.2-1-2.2-2.2v0c0-1.2,1-2.2,2.2-2.2h29.2c1.2,0,2.2,1,2.2,2.2v0C41.1,32.2,40.1,33.1,38.9,33.1z"
			/>
	</g>
	<g>
		<path d="M52.5,33.4V16.6h6.1c5,0,8.4,3.2,8.4,8.4s-3.4,8.3-8.4,8.3H52.5z M58.4,29.8c2.6,0,4.7-1.5,4.7-4.8s-2.1-4.9-4.7-4.9h-2.2
			v9.7H58.4z"/>
		<path d="M69.6,33.4V16.6h10.6v3.5h-6.9v3.2h6.2v3.3h-6.2v3.2h6.9v3.5H69.6z"/>
		<path d="M82.4,25c0-5.2,4-8.7,8.6-8.7c5,0,7.2,3.2,7.8,5.6L95.3,23c-0.3-1.2-1.3-3.1-4.3-3.1c-2.2,0-4.8,1.6-4.8,5.1
			c0,3.1,2.3,4.9,4.8,4.9c2.9,0,4.1-1.9,4.4-3.1l3.6,1c-0.5,2.3-2.8,5.8-7.9,5.8C86.2,33.7,82.4,30.2,82.4,25z"/>
		<path d="M109.1,16.3c4.7,0,8.7,3.4,8.7,8.7c0,5.3-4,8.7-8.7,8.7c-4.7,0-8.7-3.4-8.7-8.7C100.4,19.7,104.4,16.3,109.1,16.3z
			 M109.1,30c2.3,0,4.8-1.6,4.8-5s-2.5-5.1-4.8-5.1c-2.3,0-4.8,1.6-4.8,5.1S106.8,30,109.1,30z"/>
		<path d="M120.4,33.4V16.6h6.1c5,0,8.4,3.2,8.4,8.4s-3.4,8.3-8.4,8.3H120.4z M126.3,29.8c2.6,0,4.7-1.5,4.7-4.8s-2.1-4.9-4.7-4.9
			h-2.2v9.7H126.3z"/>
		<path d="M137.6,33.4V16.6h3.8v16.7H137.6z"/>
		<path d="M144.9,33.4V16.6h10.8v3.5h-7v3.5h6.2v3.4h-6.2v6.2H144.9z"/>
		<path d="M158.3,33.4V16.6h3.8v16.7H158.3z"/>
		<path d="M164.7,25c0-5.2,4-8.7,8.6-8.7c5,0,7.2,3.2,7.8,5.6l-3.5,1.1c-0.3-1.2-1.3-3.1-4.3-3.1c-2.2,0-4.8,1.6-4.8,5.1
			c0,3.1,2.3,4.9,4.8,4.9c2.9,0,4.1-1.9,4.4-3.1l3.6,1c-0.5,2.3-2.8,5.8-7.9,5.8C168.6,33.7,164.7,30.2,164.7,25z"/>
		<path d="M193.1,30h-6.5l-1.2,3.4h-3.9l6.3-16.7h4.3l6.2,16.7h-4.1L193.1,30z M187.8,26.6h4.1l-2-5.8L187.8,26.6z"/>
		<path d="M205.4,27.1h-1.3v6.2h-3.7V16.6h6.6c3.3,0,5.4,2.3,5.4,5.2c0,2.3-1.2,4-3.3,4.7l3.4,6.8h-4.1L205.4,27.1z M206.3,23.9
			c1.5,0,2.4-0.8,2.4-2c0-1.2-0.8-2-2.4-2h-2.2v4.1H206.3z"/>
	</g>
</g>
</svg>
