<?xml version="1.0" encoding="utf-8"?>
<!-- Generator: Adobe Illustrator 22.1.0, SVG Export Plug-In . SVG Version: 6.00 Build 0)  -->
<svg version="1.1" id="Capa_1" xmlns="http://www.w3.org/2000/svg" xmlns:xlink="http://www.w3.org/1999/xlink" x="0px" y="0px"
	 viewBox="0 0 841.9 595.3" style="enable-background:new 0 0 841.9 595.3;" xml:space="preserve">
<g>
	<g>
		<path d="M528.5,262.1H313.1c-4.7,0-8.5-3.8-8.5-8.5v-12.7c0-4.7,3.8-8.5,8.5-8.5h215.4c4.7,0,8.5,3.8,8.5,8.5v12.7
			C537,258.3,533.2,262.1,528.5,262.1z"/>
		<path d="M513.7,227.4H313.1c-4.7,0-8.5-3.8-8.5-8.5v-12.7c0-4.7,3.8-8.5,8.5-8.5h200.6c4.7,0,8.5,3.8,8.5,8.5v12.7
			C522.2,223.6,518.4,227.4,513.7,227.4z"/>
		<path d="M490.7,192.6H313.1c-4.7,0-8.5-3.8-8.5-8.5v-12.7c0-4.7,3.8-8.5,8.5-8.5h177.6c4.7,0,8.5,3.8,8.5,8.5v12.7
			C499.2,188.8,495.4,192.6,490.7,192.6z"/>
		<path d="M426.6,157.9H313.1c-4.7,0-8.5-3.8-8.5-8.5v-12.7c0-4.7,3.8-8.5,8.5-8.5h113.5c4.7,0,8.5,3.8,8.5,8.5v12.7
			C435.1,154.1,431.3,157.9,426.6,157.9z"/>
		<path d="M426.6,401.1H313.1c-4.7,0-8.5-3.8-8.5-8.5v-12.7c0-4.7,3.8-8.5,8.5-8.5h113.5c4.7,0,8.5,3.8,8.5,8.5v12.7
			C435.1,397.3,431.3,401.1,426.6,401.1z"/>
		<path d="M490.7,366.4H313.1c-4.7,0-8.5-3.8-8.5-8.5v-12.7c0-4.7,3.8-8.5,8.5-8.5h177.6c4.7,0,8.5,3.8,8.5,8.5v12.7
			C499.2,362.6,495.4,366.4,490.7,366.4z"/>
		<path d="M513.7,331.6H313.1c-4.7,0-8.5-3.8-8.5-8.5v-12.7c0-4.7,3.8-8.5,8.5-8.5h200.6c4.7,0,8.5,3.8,8.5,8.5v12.7
			C522.2,327.8,518.4,331.6,513.7,331.6z"/>
		<path d="M528.5,296.9H313.1c-4.7,0-8.5-3.8-8.5-8.5v-12.7c0-4.7,3.8-8.5,8.5-8.5h215.4c4.7,0,8.5,3.8,8.5,8.5v12.7
			C537,293.1,533.2,296.9,528.5,296.9z"/>
	</g>
	<g>
		<path d="M304,464.2v-24.6h8.9c7.4,0,12.3,4.7,12.3,12.3s-5,12.3-12.4,12.3H304z M312.6,459.1c3.8,0,6.9-2.2,6.9-7.1
			s-3.1-7.1-6.9-7.1h-3.2v14.2H312.6z"/>
		<path d="M329.1,464.2v-24.6h15.6v5.2h-10.1v4.7h9.2v4.8h-9.2v4.7h10.1v5.2H329.1z"/>
		<path d="M347.9,452c0-7.7,5.8-12.9,12.7-12.9c7.4,0,10.6,4.7,11.4,8.3l-5.2,1.6c-0.4-1.7-1.9-4.6-6.3-4.6c-3.3,0-7,2.4-7,7.5
			c0,4.6,3.4,7.3,7.1,7.3c4.3,0,6-2.8,6.4-4.6l5.2,1.5c-0.8,3.4-4.1,8.6-11.7,8.6C353.6,464.7,347.9,459.6,347.9,452z"/>
		<path d="M387.2,439.1c6.9,0,12.8,5,12.8,12.8c0,7.8-5.9,12.8-12.8,12.8c-6.9,0-12.8-5-12.8-12.8
			C374.4,444.1,380.3,439.1,387.2,439.1z M387.2,459.3c3.4,0,7.1-2.3,7.1-7.4s-3.7-7.5-7.1-7.5c-3.4,0-7.1,2.3-7.1,7.5
			S383.8,459.3,387.2,459.3z"/>
		<path d="M403.9,464.2v-24.6h8.9c7.4,0,12.3,4.7,12.3,12.3s-5,12.3-12.4,12.3H403.9z M412.6,459.1c3.8,0,6.9-2.2,6.9-7.1
			s-3.1-7.1-6.9-7.1h-3.2v14.2H412.6z"/>
		<path d="M429.1,464.2v-24.6h5.5v24.6H429.1z"/>
		<path d="M439.9,464.2v-24.6h15.8v5.2h-10.4v5.2h9.1v5h-9.1v9.2H439.9z"/>
		<path d="M459.6,464.2v-24.6h5.5v24.6H459.6z"/>
		<path d="M469,452c0-7.7,5.8-12.9,12.7-12.9c7.4,0,10.6,4.7,11.4,8.3L488,449c-0.4-1.7-1.9-4.6-6.3-4.6c-3.3,0-7,2.4-7,7.5
			c0,4.6,3.4,7.3,7.1,7.3c4.3,0,6-2.8,6.4-4.6l5.2,1.5c-0.8,3.4-4.1,8.6-11.7,8.6C474.7,464.7,469,459.6,469,452z"/>
		<path d="M510.7,459.2h-9.5l-1.8,5h-5.8l9.3-24.6h6.3l9.2,24.6h-6L510.7,459.2z M503.1,454.2h6l-2.9-8.5L503.1,454.2z"/>
		<path d="M528.9,455.1H527v9.2h-5.5v-24.6h9.7c4.9,0,8,3.3,8,7.7c0,3.3-1.8,5.9-4.9,6.9l5,9.9h-6L528.9,455.1z M530.2,450.4
			c2.3,0,3.5-1.2,3.5-3c0-1.8-1.2-3-3.5-3H527v6H530.2z"/>
	</g>
</g>
</svg>
