<svg xmlns="http://www.w3.org/2000/svg" width="512" height="519" viewBox="0 0 512 519">
  <title>microscopio</title>
  <g>
    <path d="M414.72,308.88H320.34a25.81,25.81,0,1,0-3.79,51.49A94.37,94.37,0,1,1,187.87,223.11c1.25.06,2.52.06,3.77,0a42.9,42.9,0,0,0,25.74-8.59L227.93,225a17.18,17.18,0,0,0,4.37,16.47l12.1,12.18a17.14,17.14,0,0,0,24.28,0l6.09-6.09L292.53,266a17.17,17.17,0,0,0,24.28,0L341,241.71a17.14,17.14,0,0,0,0-24.28l-18.19-18.19,6.09-6a17.14,17.14,0,0,0,0-24.28l-12.09-12.18a17.17,17.17,0,0,0-16.56-4.37l-123-123.21a17.17,17.17,0,0,0-24.28,0L128.77,5.08a17.17,17.17,0,0,0-24.28,0L80.12,29.28a17.17,17.17,0,0,0,0,24.28l24.37,24.28a17.14,17.14,0,0,0,0,24.28l52.84,52.75a42.34,42.34,0,0,0-8.57,21.64A154.44,154.44,0,0,0,181.29,429H140.18A51.49,51.49,0,0,0,88.69,480.5v17.15H80.12a8.59,8.59,0,1,0,0,17.18H423.31a8.59,8.59,0,0,0,0-17.18h-8.59V480.5A51.49,51.49,0,0,0,363.24,429H322.15a154,154,0,0,0,67.78-68.64h24.79a25.75,25.75,0,1,0,0-51.49ZM191.66,205.93a25.75,25.75,0,1,1,25.75-25.74A25.74,25.74,0,0,1,191.66,205.93Zm137.27,23.59L304.65,253.8l-18.19-18.19,24.28-24.28Zm-24.28-60.65L316.83,181l-60.74,60.66L244,229.52ZM92.31,41.46l24.27-24.28,24.28,24.28L116.58,65.74ZM116.58,90c31.52-31.49,43-43,46.5-46.56l2.06-2L286.46,163,237.9,211.59l-9.43-9.45a42.9,42.9,0,0,0-58.53-58.5ZM363.26,446.17a34.31,34.31,0,0,1,34.31,34.31v17.15H105.87V480.48a34.3,34.3,0,0,1,34.31-34.31ZM251.72,429a137.28,137.28,0,0,1-99.45-231.65,42.84,42.84,0,0,0,17.16,19.48A111.54,111.54,0,1,0,339.24,360.35h31.23A137.26,137.26,0,0,1,251.72,429Zm163-85.8H320.34a8.59,8.59,0,1,1,0-17.17h94.38a8.59,8.59,0,1,1,0,17.17Z"/>
    <path d="M191.66,168.93a11.26,11.26,0,1,0,11.26,11.26A11.25,11.25,0,0,0,191.66,168.93Z"/>
  </g>
</svg>
