<svg xmlns="http://www.w3.org/2000/svg" width="218.2" height="182.94" viewBox="0 0 218.2 182.94">
  <title>minivac</title>
  <g>
    <path d="M51.25,136.19a4.37,4.37,0,0,0-4.37,4.37v23.52a4.37,4.37,0,0,0,8.74,0V140.56A4.37,4.37,0,0,0,51.25,136.19Z" fill="#f7a95d"/>
    <path d="M126,99.75c-2.22-.78-5.69-1.84-11.3-3.56-2.6-.8-3.19-4.72-3.31-7,9.41-8.12,15.4-21.81,15.4-35.58a34.31,34.31,0,0,0-68.62,0c0,13.77,6,27.47,15.4,35.58-.12,2.32-.71,6.24-3.3,7l-25.65,7.86C33,107.6,22.32,113.88,22.32,135.61v28.47a4.37,4.37,0,1,0,8.74,0V135.61c0-15.44,5.42-19.93,16.11-23.2l25.65-7.86c8.43-2.59,9.92-12.43,9.47-17.84a4.38,4.38,0,0,0-1.72-3.13c-8.3-6.28-13.67-18.06-13.67-30a25.57,25.57,0,0,1,51.14,0c0,12-5.37,23.74-13.68,30a4.39,4.39,0,0,0-1.73,3.35c-.39,5.46,1.18,15.07,9.49,17.62l12.37,3.79m28.62,18.92a41,41,0,0,1,.78,8.35v28.47a4.37,4.37,0,1,0,8.74,0V135.61a44.66,44.66,0,0,0-1.82-13.53" fill="#f7a95d"/>
    <path d="M133.69,136.19a4.37,4.37,0,0,0-4.37,4.37v23.52a4.38,4.38,0,0,0,8.75,0V140.56A4.38,4.38,0,0,0,133.69,136.19Z" fill="#f7a95d"/>
  </g>
  <path d="M207.88,63,190.13,45.26A4.37,4.37,0,1,0,184,51.44l5.78,5.79-6.62,6.62L169.6,50.33a4.37,4.37,0,0,0-6.18,6.18l1.73,1.74L130.6,92.81a21.37,21.37,0,0,0-1.43,1.59c-.24.28-.44.59-.65.88s-.41.53-.6.81-.47.78-.7,1.18c-.11.2-.25.4-.36.61-.26.49-.48,1-.7,1.51,0,.12-.12.24-.17.36h0a21.1,21.1,0,0,0,.46,16.88v0q.29.63.63,1.23a.41.41,0,0,0,0,.09c.22.39.45.78.7,1.16h0L115,132a4.36,4.36,0,0,0,0,6.18,4.37,4.37,0,0,0,6.18,0L134,125.32c.35.22.7.41,1.05.61l.29.17c.32.18.65.34,1,.5s.43.21.65.3l.93.4.92.32c.41.13.83.26,1.26.37l1,.26.83.15.95.14c.28,0,.57.07.86.09s.68,0,1,.05a21,21,0,0,0,15.55-6.13c.16-.16.29-.33.44-.49l0,0L194.89,88l1.73,1.74a4.37,4.37,0,0,0,6.19-6.18L189.3,70l6.62-6.62,5.78,5.79A4.37,4.37,0,1,0,207.88,63ZM184.45,86.08l-5.62-5.62a4.37,4.37,0,0,0-6.19,6.18l5.62,5.62-5,5-5.62-5.62a4.38,4.38,0,0,0-6.19,0,4.38,4.38,0,0,0,0,6.18l5.63,5.63-5,5-5.63-5.62a4.37,4.37,0,0,0-6.18,0,4.36,4.36,0,0,0,0,6.18l5.62,5.62-1.65,1.66A12.28,12.28,0,0,1,136.78,99l34.57-34.56,17.37,17.37Z" fill="#59a14e"/>
</svg>
