<svg xmlns="http://www.w3.org/2000/svg" width="184.78" height="127.51" viewBox="0 0 184.78 127.51">
  <title>minivacLabel</title>
  <path d="M121.66,38.79l-14-14a3.44,3.44,0,0,0-4.86,4.87l4.55,4.55-5.21,5.21L91.53,28.81a3.44,3.44,0,1,0-4.87,4.87L88,35.05,60.84,62.25a16.42,16.42,0,0,0-1.13,1.24c-.18.23-.34.47-.51.7s-.33.42-.47.63-.37.62-.55.93c-.09.16-.2.32-.29.48-.2.39-.38.79-.55,1.19,0,.1-.09.19-.13.29h0A16.55,16.55,0,0,0,57.57,81v0c.15.32.31.64.49,1a.43.43,0,0,0,0,.07c.17.31.36.62.55.91h0L48.53,93.08A3.44,3.44,0,1,0,53.4,98L63.52,87.82c.27.18.55.33.83.49l.22.13.78.4.51.23c.24.11.48.22.73.31l.72.25q.5.16,1,.3l.82.2c.22.05.44.08.66.12l.74.11.68.07.8,0a16.5,16.5,0,0,0,12.24-4.82c.12-.12.23-.26.35-.39h0l26.82-26.82,1.36,1.37a3.46,3.46,0,0,0,2.44,1A3.44,3.44,0,0,0,117.66,55L107,44.32l5.21-5.21,4.55,4.55a3.44,3.44,0,0,0,4.87-4.87ZM103.21,57l-4.42-4.43a3.44,3.44,0,1,0-4.87,4.87l4.42,4.42-4,4L90,61.35a3.42,3.42,0,0,0-2.43-1,3.44,3.44,0,0,0-2.44,5.87l4.43,4.42-4,4-4.43-4.43a3.44,3.44,0,0,0-4.87,4.87l4.43,4.42-1.31,1.31A9.67,9.67,0,0,1,65.7,67.11L92.91,39.92l13.66,13.67Z" fill="#59a14e"/>
</svg>
