<svg xmlns="http://www.w3.org/2000/svg" width="218.2" height="182.94" viewBox="0 0 218.2 182.94">
  <title>minivac</title>
  <g>
    <path d="M51.25,136.19a4.37,4.37,0,0,0-4.37,4.37v23.52a4.37,4.37,0,0,0,8.74,0V140.56A4.37,4.37,0,0,0,51.25,136.19Z"/>
    <path d="M207.88,63,190.13,45.26A4.37,4.37,0,1,0,184,51.44l5.78,5.79-6.62,6.62L169.6,50.33a4.37,4.37,0,0,0-6.18,6.18l1.73,1.74L130.6,92.81A21.11,21.11,0,0,0,126,99.75c-2.22-.78-5.69-1.84-11.3-3.56-2.6-.8-3.19-4.72-3.31-7,9.41-8.12,15.4-21.81,15.4-35.58a34.31,34.31,0,0,0-68.62,0c0,13.77,6,27.47,15.4,35.58-.12,2.32-.71,6.24-3.3,7l-25.65,7.86C33,107.6,22.32,113.88,22.32,135.61v28.47a4.37,4.37,0,1,0,8.74,0V135.61c0-15.44,5.42-19.93,16.11-23.2l25.65-7.86c8.43-2.59,9.92-12.43,9.47-17.84a4.38,4.38,0,0,0-1.72-3.13c-8.3-6.28-13.67-18.06-13.67-30a25.57,25.57,0,0,1,51.14,0c0,12-5.37,23.74-13.68,30a4.39,4.39,0,0,0-1.73,3.35c-.39,5.46,1.18,15.07,9.49,17.62l12.37,3.79a20.91,20.91,0,0,0,3.35,10.79L115,132a4.36,4.36,0,0,0,0,6.18,4.37,4.37,0,0,0,6.18,0L134,125.31a21,21,0,0,0,19.09,2,41,41,0,0,1,.78,8.35v28.47a4.37,4.37,0,1,0,8.74,0V135.61a44.66,44.66,0,0,0-1.82-13.53L194.89,88l1.73,1.74a4.37,4.37,0,0,0,6.19-6.18L189.3,70l6.62-6.62,5.78,5.79A4.37,4.37,0,1,0,207.88,63ZM184.45,86.08l-5.62-5.62a4.37,4.37,0,0,0-6.19,6.18l5.62,5.62-5,5-5.62-5.62a4.38,4.38,0,0,0-6.19,0,4.38,4.38,0,0,0,0,6.18l5.63,5.63-5,5-5.63-5.62a4.37,4.37,0,0,0-6.18,0,4.36,4.36,0,0,0,0,6.18l5.62,5.62-1.65,1.66A12.28,12.28,0,0,1,136.78,99l34.57-34.56,17.37,17.37Z"/>
    <path d="M133.69,136.19a4.37,4.37,0,0,0-4.37,4.37v23.52a4.38,4.38,0,0,0,8.75,0V140.56A4.38,4.38,0,0,0,133.69,136.19Z"/>
  </g>
</svg>
