<svg xmlns="http://www.w3.org/2000/svg" width="123.43" height="182.94" viewBox="0 0 123.43 182.94">
  <title>minivacLabel</title>
  <path d="M107.82,63,90.07,45.26a4.37,4.37,0,1,0-6.19,6.18l5.79,5.79-6.62,6.62L69.54,50.33a4.37,4.37,0,0,0-6.19,6.18l1.74,1.74L30.54,92.81a19.36,19.36,0,0,0-1.43,1.59c-.24.28-.44.59-.66.88s-.41.53-.59.81-.47.78-.7,1.18c-.12.2-.25.4-.36.61-.26.49-.49,1-.7,1.51-.06.12-.12.24-.17.36h0a21.06,21.06,0,0,0,.46,16.88v0c.19.42.4.83.62,1.23l.06.09c.22.39.45.78.69,1.16h0L14.9,132a4.37,4.37,0,0,0,6.19,6.18L34,125.32c.34.22.7.41,1,.61l.29.17c.32.18.65.34,1,.5s.43.21.65.3l.93.4.91.32c.42.13.84.26,1.27.37l1,.26c.27.06.55.1.83.15l.94.14c.29,0,.58.07.87.09s.67,0,1,.05a21,21,0,0,0,15.56-6.13l.44-.49,0,0L94.82,88l1.74,1.74a4.37,4.37,0,0,0,6.19-6.18L89.23,70l6.62-6.62,5.79,5.79A4.37,4.37,0,1,0,107.82,63ZM84.38,86.08l-5.62-5.62a4.37,4.37,0,0,0-6.18,6.18l5.62,5.62-5,5-5.62-5.62a4.37,4.37,0,0,0-6.19,6.18L67,103.49l-5,5-5.63-5.62a4.37,4.37,0,0,0-6.18,0,4.36,4.36,0,0,0,0,6.18l5.62,5.62-1.65,1.66A12.28,12.28,0,0,1,36.72,99L71.29,64.44,88.65,81.81Z" fill="#59a14e"/>
</svg>
