<svg xmlns="http://www.w3.org/2000/svg" width="729.24" height="548.82" viewBox="0 0 729.24 548.82">
  <title>personitaB</title>
  <path d="M717.93,201l-46-46a14.53,14.53,0,1,0-20.55,20.56l7.61,7.61L609.19,233l-9.76-9.76a11.5,11.5,0,0,0-16.25,0l-12.6,12.6a5.85,5.85,0,0,0,8.27,8.27l12.45-12.46,50,50L596.37,327.7l-6.62-6.61a5.85,5.85,0,1,0-8.26,8.28l6.61,6.6-6.24,6.24-14-14a5.85,5.85,0,0,0-8.27,8.27l14,14-6.24,6.24-6.62-6.61a5.85,5.85,0,0,0-8.27,8.27l6.61,6.61-6.23,6.23-14-14a5.85,5.85,0,1,0-8.27,8.27l14,14-6.24,6.24-6.62-6.61a5.85,5.85,0,0,0-8.27,8.27l6.62,6.6-6.24,6.24-14-14a5.85,5.85,0,0,0-8.27,8.27l14,14-8.23,8.23-50-50,109.74-110.9a5.85,5.85,0,0,0-8.27-8.27L449,358.64a11.5,11.5,0,0,0,0,16.25L462,387.94l-8,8a5.87,5.87,0,0,0,0,8.28l3.82,3.81L428.2,437.63a5.85,5.85,0,0,0,8.27,8.27l29.64-29.64,3.95,3.95a5.85,5.85,0,0,0,8.27,0l8-8,12.92,12.92a11.52,11.52,0,0,0,16.25,0L649.7,289.77a11.5,11.5,0,0,0,0-16.25l-9.92-9.91,49.83-49.84,7.77,7.77A14.53,14.53,0,0,0,717.93,201ZM474.2,407.8,466.44,400l3.83-3.83L478,404ZM709.66,213.27a2.85,2.85,0,0,1-4,0l-21.41-21.41a5.85,5.85,0,0,0-8.27,8.27l5.37,5.37-49.83,49.84-14-14.05,54-54a5.84,5.84,0,0,0,0-8.27l-11.74-11.74a2.84,2.84,0,0,1,4-4l46,46A2.84,2.84,0,0,1,709.66,213.27Z" fill="#4e79a7"/>
  <path d="M126.92,516.1a7.76,7.76,0,0,1-7.75-7.75V439.73a7.76,7.76,0,1,1,15.51,0v68.62A7.77,7.77,0,0,1,126.92,516.1Z" fill="#f7a95d"/>
  <path d="M367.45,516.1a7.77,7.77,0,0,1-7.76-7.75V439.73a7.76,7.76,0,1,1,15.51,0v68.62A7.76,7.76,0,0,1,367.45,516.1Z" fill="#f7a95d"/>
  <path d="M429.63,402.51c1.72,12.1,17.23,8.18,14.61-5.61-2.89-14-8.19-25.32-16-34.27C416.1,348.71,399,342.14,385.36,338L310.53,315c-7.91-2.42-12.47-11.08-13.19-25.05l-.12-2.44,1.85-1.6c26.65-23,43.21-61.31,43.21-100a95.1,95.1,0,0,0-190.19,0c0,38.72,16.56,77.05,43.21,100l1.85,1.6L197,290c-.72,14-5.28,22.63-13.18,25.05L109,338c-13.59,4.16-30.74,10.73-42.88,24.65C53.6,377,47.51,397.48,47.51,425.27v83.08a7.76,7.76,0,1,0,15.51,0V425.27c0-47.89,17.76-62.42,50.53-72.47l74.85-22.94c21.54-6.6,25.3-32.56,24.12-46.84a7.76,7.76,0,0,0-3.06-5.55C184,258.23,167.6,222.29,167.6,185.92a79.59,79.59,0,0,1,159.17,0c0,36.37-16.43,72.31-41.87,91.55a7.78,7.78,0,0,0-3,5.54c-1.18,14.29,2.58,40.25,24.12,46.85l74.85,22.94C407.69,361,424.46,372.31,429.63,402.51Z" fill="#f7a95d"/>
  <path d="M431.35,466.28v42.07a7.76,7.76,0,1,0,15.51,0V466C446.86,450.43,431.35,453.8,431.35,466.28Z" fill="#f7a95d"/>
</svg>
