<svg xmlns="http://www.w3.org/2000/svg" width="729.24" height="548.82" viewBox="0 0 729.24 548.82">
  <title>personitaB</title>
  <path d="M361.49,345.7l-1.17-.43a8.36,8.36,0,0,0-1.24-.6l-.14,0-14.19-5.1h0L272,313.4V280.27a93.42,93.42,0,0,0,7.46-6.16c10.41-9.6,17.87-20.8,22-32.69a47.9,47.9,0,0,0,16.6-3.24c17.48-6.83,29.31-33.21,26.36-58.82-1-8.42-4.26-14.7-9.8-18.67a25.44,25.44,0,0,0-12.7-4.45,78.67,78.67,0,0,0,14.76-20c16.18-31.55,12.64-60,6.82-78.34C337.16,38.11,327,25.73,326.6,25.22a8,8,0,0,0-6.12-2.9,8.14,8.14,0,0,0-6.15,2.83c-.1.13-11.05,12.63-22.45,10.36-1.52-.3-3.06-.67-4.7-1.1A8,8,0,0,0,283,49.84l.14,0c2,.52,3.82,1,5.67,1.33,12.51,2.49,23.44-3.46,30.29-8.75,8.42,14.07,23.26,47.63,3.34,86.47a65.42,65.42,0,0,1-19.57,22.57c-.42-1.87-.89-3.85-1.42-5.86-3.83-14.41-8.36-22-14.67-24.76a12.68,12.68,0,0,0-12.54,1.55c-15.12,10.72-24.11,16.16-48.07,12.84-21.85-3-36.4-12.59-36.52-12.67a8,8,0,0,0-7.73-.79,7.79,7.79,0,0,0-4.63,6c-.14.6-1.45,5.77-6.79,12.22-3.84,4.64-8.32,9.74-11.64,13.46a89.1,89.1,0,0,1-15.58-16.24c-12.46-16.92-16.67-35.73-12.51-55.92,3.65-17.73,14.43-30,33-37.63,13.3-5.44,30.17-8.2,50.16-8.2,21.94,0,35.87,3.54,47.65,7.36a8,8,0,0,0,4.94-15.22c-12.41-4-28.36-8.14-52.59-8.14-22.08,0-41,3.16-56.22,9.4-23.51,9.62-37.83,26.18-42.58,49.2-5.08,24.69.35,48.61,15.69,69.17a102.75,102.75,0,0,0,7.44,8.85,26.12,26.12,0,0,0-13.89,4.53c-5.53,4-8.83,10.26-9.8,18.68-2.94,25.6,8.88,52,26.37,58.82a47.91,47.91,0,0,0,14.67,3.17c5.47,15.94,16.58,29.7,29.89,39.46v32.61l-59,21.3-30.45,11a47.85,47.85,0,0,0-31.92,45V523.53a8,8,0,0,0,16,0v-11h46.8v11a8,8,0,0,0,16,0v-85.4a8,8,0,0,0-16,0v58.4H80V390.71a31.84,31.84,0,0,1,21.3-29.94l37.57-13.55,47.08-17A71.31,71.31,0,0,0,190.42,348c7,17.26,20.59,26.77,38.28,26.77S260,365.27,267,348a71.35,71.35,0,0,0,4.48-17.79l68.34,24.53,16.32,6a31.78,31.78,0,0,1,16.3,13c-4.32,10.84-7.8,20.32-10.89,28.76-11.63,31.71-15.92,41.84-30.91,44v-8.38a8,8,0,0,0-16,0v85.4a8,8,0,0,0,16,0V462.6c26.94-2.84,33.64-21.08,45.93-54.61.28-.77.57-1.57.87-2.36v117.9a8,8,0,0,0,16,0V390.71A47.86,47.86,0,0,0,361.49,345.7Zm-56.4-125.89V173.62c7.22-1.43,16.26-2.72,20.15.07.64.46,2.58,1.85,3.23,7.5,2.25,19.57-6.75,38.36-16.29,42.09a31.51,31.51,0,0,1-7.34,1.86C305,223.37,305.09,221.59,305.09,219.81Zm-158.42,3.47c-11.58-4.52-18.15-25.95-16.29-42.09.65-5.65,2.59-7,3.23-7.5,3.55-2.55,11.42-1.69,18.25-.43v46.55c0,1.69.08,3.36.2,5A30.72,30.72,0,0,1,146.67,223.28ZM256,323.24A57.36,57.36,0,0,1,252.13,342h0c-4.57,11.29-12.23,16.78-23.44,16.78s-18.71-5.38-23.3-16.43a57.52,57.52,0,0,1-4-19.12v-3.55a9.11,9.11,0,0,0,0-1.28V290.13a67,67,0,0,0,26.92,6.16A67.43,67.43,0,0,0,256,289.77Zm12.61-60.89c-12,11.06-27.4,17.93-40.24,17.93s-28.16-6.86-40.07-17.92a72.77,72.77,0,0,1-14.63-19.14c-3.17-6.2-5.06-15.18-5.06-15.18a50.43,50.43,0,0,1-.71-8.23V167.38c3.23-3.56,9.57-10.65,14.92-17.12a56.63,56.63,0,0,0,6.47-9.62,117.24,117.24,0,0,0,34.67,10.47c27.92,3.87,41.33-2.94,57.35-14.11,2.72,4.62,6.12,16.54,7.82,27.9v54.91a49.11,49.11,0,0,1-.66,7.85s-2.09,10.1-5,15.21S274.67,256.81,268.57,262.35Z"/>
  <path d="M697.93,201l-46-46a14.53,14.53,0,1,0-20.55,20.56l7.61,7.61L589.19,233l-9.76-9.76a11.5,11.5,0,0,0-16.25,0l-12.6,12.6a5.85,5.85,0,0,0,8.27,8.27l12.45-12.46,50,50L576.37,327.7l-6.62-6.61a5.85,5.85,0,1,0-8.26,8.28l6.61,6.6-6.24,6.24-14-14a5.85,5.85,0,0,0-8.27,8.27l14,14-6.24,6.24-6.62-6.61a5.85,5.85,0,0,0-8.27,8.27l6.61,6.61-6.23,6.23-14-14a5.85,5.85,0,0,0-8.27,8.27l14,14-6.24,6.24-6.62-6.61a5.85,5.85,0,0,0-8.27,8.27l6.62,6.6-6.24,6.24-14-14a5.85,5.85,0,0,0-8.27,8.27l14,14-8.23,8.23-50-50,109.74-110.9a5.85,5.85,0,0,0-8.27-8.27L429,358.64a11.5,11.5,0,0,0,0,16.25L442,387.94l-8,8a5.87,5.87,0,0,0,0,8.28l3.82,3.81L408.2,437.63a5.85,5.85,0,0,0,8.27,8.27l29.64-29.64,3.95,3.95a5.85,5.85,0,0,0,8.27,0l8-8,12.92,12.92a11.52,11.52,0,0,0,16.25,0L629.7,289.77a11.5,11.5,0,0,0,0-16.25l-9.92-9.91,49.83-49.84,7.77,7.77A14.53,14.53,0,0,0,697.93,201ZM454.2,407.8,446.44,400l3.83-3.83L458,404ZM689.66,213.27a2.85,2.85,0,0,1-4,0l-21.41-21.41a5.85,5.85,0,0,0-8.27,8.27l5.37,5.37-49.83,49.84-14-14.05,54-54a5.84,5.84,0,0,0,0-8.27l-11.74-11.74a2.84,2.84,0,0,1,4-4l46,46A2.84,2.84,0,0,1,689.66,213.27Z"/>
</svg>
