<svg xmlns="http://www.w3.org/2000/svg" width="512" height="519" viewBox="0 0 512 519">
  <title>petri</title>
  <path d="M206.85,321.85a16.83,16.83,0,0,0,11.89-4.93l20.66-21.09a29.59,29.59,0,0,0,26.51-8L377.19,176.53a16.84,16.84,0,0,0,21.66-24.61l34-14.58a55.14,55.14,0,0,0,18-12.13c19.81-19.81,21.56-50.29,3.91-67.95s-48.14-15.9-68,3.91a55.58,55.58,0,0,0-12.13,18v0l-14.87,33.71a16.85,16.85,0,0,0-24.31,21.88L224.19,246.09a29.23,29.23,0,0,0-8.07,26.23l-21.08,21a16.71,16.71,0,0,0,11.81,28.54ZM386.78,84.39l.11-.27a42.64,42.64,0,0,1,9.23-13.63c14.67-14.67,36.79-16.43,49.31-3.91s10.76,34.64-3.91,49.31a42.43,42.43,0,0,1-13.75,9.28l-.09,0-38.61,16.57-19.15-19.15ZM204.36,302.65,228.11,279a6.61,6.61,0,0,0,1.59-6.8,16.18,16.18,0,0,1,3.82-16.79L344.28,144.65l1.53,1.53a6.59,6.59,0,0,0,9.32-9.32l-7.37-7.38A3.67,3.67,0,0,1,353,124.3l34.76,34.76a3.67,3.67,0,0,1-5.12,5.26l-.07-.08-14.63-14.63a6.59,6.59,0,1,0-9.38,9.27l.05.05,8.79,8.79L256.59,278.49a16.19,16.19,0,0,1-17,3.76,6.6,6.6,0,0,0-6.91,1.6l-23.31,23.79a3.54,3.54,0,0,1-5-5Z" fill="#999"/>
  <path d="M167.76,369.59a29.07,29.07,0,0,0-3,13.07,29.45,29.45,0,1,0,55-14.64L200,331.46a6.59,6.59,0,0,0-11.6,0l-20.5,37.94A1.74,1.74,0,0,1,167.76,369.59Zm11.76,6,14.64-27.11,14,25.91.09.16a16.27,16.27,0,1,1-30.36,8.13,16,16,0,0,1,1.63-7.09Z" fill="#e15759"/>
  <path d="M256,303.24l-5.79,0a6.6,6.6,0,0,0,0,13.19h.06c1.88,0,3.78,0,5.68,0,54,0,104.69,5.91,142.72,16.64,26.62,7.51,55.06,20.51,55.06,34.45S425.33,394.45,398.72,402C360.69,412.7,310,418.61,256,418.61S151.31,412.7,113.28,402c-26.61-7.51-55-20.51-55-34.44,0-8.39,11.12-17.87,30.51-26,21.49-9,51.69-16.11,87.33-20.44A6.59,6.59,0,1,0,174.54,308h-.07c-36.82,4.47-68.24,11.86-90.84,21.37C58,340.11,45,353,45,367.52v35.17C45,444.44,153.73,467,256,467s211-22.52,211-64.27V367.52C467,325.77,358.27,303.24,256,303.24ZM398.72,437.13c-38,10.74-88.72,16.65-142.72,16.65s-104.69-5.91-142.72-16.65c-26.61-7.51-55-20.51-55-34.44V391.12C90.17,417.69,175.09,431.79,256,431.79s165.83-14.1,197.77-40.67v11.57C453.77,416.62,425.33,429.62,398.72,437.13Z" fill="#999"/>
  <path d="M433.7,380.17a6.59,6.59,0,0,0,2.93-12.5C399.46,349.25,330.25,337.81,256,337.81c-10.68,0-21.41.23-31.89.69a6.59,6.59,0,1,0,.57,13.17C235,351.22,245.5,351,256,351c72.34,0,139.31,10.92,174.77,28.49A6.61,6.61,0,0,0,433.7,380.17Z" fill="#999"/>
  <path d="M168.07,350a6.58,6.58,0,0,0-7.49-5.56c-35.59,5.24-65,13.28-85.18,23.25a6.59,6.59,0,0,0,5.85,11.82c18.92-9.37,47-17,81.26-22a6.59,6.59,0,0,0,5.56-7.48Z" fill="#999"/>
  <circle cx="245.24" cy="367.52" r="7" fill="#e15759"/>
  <circle cx="296.53" cy="367.52" r="7" fill="#e15759"/>
  <circle cx="367.73" cy="374.11" r="7" fill="#e15759"/>
  <circle cx="328.67" cy="380.7" r="7" fill="#e15759"/>
  <circle cx="142.95" cy="374.11" r="7" fill="#e15759"/>
  <circle cx="114.59" cy="380.7" r="7" fill="#e15759"/>
  <circle cx="148.02" cy="395.49" r="7" fill="#e15759"/>
  <circle cx="248.01" cy="402.08" r="7" fill="#e15759"/>
  <circle cx="299.3" cy="400.48" r="7" fill="#e15759"/>
  <circle cx="350.58" cy="395.49" r="7" fill="#e15759"/>
  <circle cx="273.52" cy="384.54" r="7" fill="#e15759"/>
  <circle cx="398.03" cy="387.29" r="7" fill="#e15759"/>
</svg>
