<svg xmlns="http://www.w3.org/2000/svg" width="627.86" height="519" viewBox="0 0 627.86 519">
  <title>raton</title>
  <path d="M593.68,156.19l-46-46a14.53,14.53,0,1,0-20.55,20.55l7.61,7.61-24,24L501,152.65a11.5,11.5,0,0,0-16.25,0l-12.6,12.6a5.85,5.85,0,1,0,8.27,8.27l12.45-12.46,50,50-9.66,9.65-6.62-6.61a5.85,5.85,0,0,0-8.27,8.28l6.62,6.6-6.24,6.23-14-14a5.85,5.85,0,0,0-8.27,8.27l14,14-6.24,6.24-6.63-6.61a5.84,5.84,0,1,0-8.26,8.27L495.9,258l-6.23,6.23-14-14a5.85,5.85,0,0,0-8.27,8.27l14,14-6.24,6.24-6.62-6.62a5.85,5.85,0,0,0-8.27,8.28l6.61,6.6-6.23,6.24-14-14a5.85,5.85,0,0,0-8.27,8.27l14,14-8.22,8.23-50-50,74.5-74.5a5.85,5.85,0,0,0-8.27-8.27l-74.64,74.65a11.49,11.49,0,0,0,0,16.24l13.05,13.05-8,8a5.85,5.85,0,0,0,0,8.27l3.81,3.82L365,330.62a5.85,5.85,0,1,0,8.27,8.27l29.64-29.64,3.95,3.95a5.85,5.85,0,0,0,8.27,0l8-8L436,318.14a11.5,11.5,0,0,0,16.25,0l99-99a11.5,11.5,0,0,0,0-16.25L541.35,193l24-24,7.77,7.76a14.53,14.53,0,0,0,20.55-20.55ZM411,300.79,403.25,293l3.84-3.83,7.76,7.76Zm174.4-132.32a2.83,2.83,0,0,1-4,0L560,147.06a5.85,5.85,0,1,0-8.27,8.27l5.37,5.38-24,24-14.05-14,28.16-28.15a5.85,5.85,0,0,0,0-8.27l-11.75-11.75a2.84,2.84,0,1,1,4-4l46,46A2.83,2.83,0,0,1,585.41,168.47Z" fill="#e15759"/>
  <path d="M407.61,384.2c10.72-11.71,17.63-28.73,19.17-48.26a7.77,7.77,0,0,0-15.5-1.22c-1.53,19.36-9.11,35.39-20.56,43.95l-.14.1a34.27,34.27,0,0,1-3.69,2.4c-30.09,16.95-54.54,18.2-54.76,18.21a7.78,7.78,0,0,0-6.78,11l7.7,16.94H194.63a38.42,38.42,0,0,1,9.74-4.91c34.61-12.63,62-12,62.24-12a7.78,7.78,0,0,0,2-15.35c-22.89-5.26-81.85-25.48-79.82-55.49,1.23-18,13.85-30.57,37.54-37.24,19.13-5.39,38.34-4.76,38.75-4.74a7.78,7.78,0,0,0,.62-15.54,156.93,156.93,0,0,0-43.24,5.21C192,295.73,175,313.45,173.27,338.5c-1.81,26.7,24.13,44.95,46.2,55.56,3.65,1.76,7.31,3.37,10.87,4.83a223.36,223.36,0,0,0-31.3,8.9c-11.47,4.18-19,9.93-22.28,17.08a17.29,17.29,0,0,0-1,12.9,7.78,7.78,0,0,0,7.29,5.09H345.12a7.78,7.78,0,0,0,7.08-11l-8.34-18.35a164.54,164.54,0,0,0,50.66-18.79l.75-.44c8.9,6.88,29.47,24.65,33.2,44.62,1.63,8.68-.18,16.64-5.54,24.31-19.3,27.68-46.71,24.21-88.2,18.94-18.55-2.35-39.58-5-62.87-5-79.43,0-126.34,19.07-128.3,19.88a7.78,7.78,0,0,0,5.82,14.42l.13-.06c.45-.19,46-18.7,122.35-18.7,22.31,0,42.82,2.6,60.91,4.9,21.76,2.76,40.54,5.14,57.44,2.71,19.57-2.81,34-11.76,45.47-28.18,7.76-11.13,10.48-23.28,8.06-36.12C439.39,412.82,419.05,393.47,407.61,384.2Z" fill="#999"/>
  <path d="M167.7,420.36V355a7.78,7.78,0,0,0-15.55,0v65.36a7,7,0,0,1-7,6.95H112.12a2.28,2.28,0,0,1-1.24-4.2L131.12,410a7.78,7.78,0,0,0,3.55-6.52V285.25c0-43.17-28.48-56.41-51.36-67.05-4.23-2-8.24-3.83-12-5.82a118.46,118.46,0,0,1-16.71-10.47,7.78,7.78,0,0,0,.51-11,8,8,0,0,0-1.64-1.36c-.12-.07-11.74-7.48-17.64-17.66-3.81-6.58-6.05-16.23-7.21-22.61,17-4.36,61.15-15.54,78.49-18.19,25.76-3.94,47.7-3.3,60.22,1.77,13,5.24,17.73,9,18.36,9.55a7.42,7.42,0,0,0,6.27,2.3,7.71,7.71,0,0,0,5.78-3.79c.18-.3,19.14-30.46,41.48-30.46,8,0,14.15,2.58,18.34,7.68a7.78,7.78,0,0,0,12-9.88c-5-6.09-14.35-13.36-30.35-13.36-23.2,0-41.76,20.29-50,31.18a124.89,124.89,0,0,0-16-7.64c-20.58-8.33-51.69-5.28-68.4-2.72C82.41,119.15,20.55,135.3,17.92,136a7.79,7.79,0,0,0-5.76,8.36c.1.89,2.45,21.92,10.22,35.34a63.26,63.26,0,0,0,11.13,13.75l-.14.21a7.79,7.79,0,0,0-.68,6.54c.92,2.66,5.89,12.41,31.34,25.92,4.11,2.18,8.49,4.22,12.72,6.19,21.79,10.13,42.37,19.7,42.37,52.95v114l-16.69,10.81a17.83,17.83,0,0,0,9.7,32.8H145.2A22.52,22.52,0,0,0,167.7,420.36Z" fill="#999"/>
  <path d="M249.07,128.1c-29.33,2.09-58.87,31.15-60.12,32.39a7.77,7.77,0,0,0,11,11h0a139.48,139.48,0,0,1,16.74-13.65c12.44-8.65,24-13.58,33.52-14.26,13-.92,25.2,2.66,32.67,9.58,3.83,3.55,6,7.65,6,11.56.1,20.59-19.82,29.37-31.6,31.31-12.56,2.07-34.73-2.29-42.21-4.14A7.77,7.77,0,1,0,211.25,207c1,.25,20.93,5.14,38.14,5.14.92,0,1.83,0,2.73-.05A92.6,92.6,0,0,0,275.07,219c36.41,5.74,69.29,17,92.57,31.67a7.78,7.78,0,0,0,8.42-13.08l-.12-.07c-24.39-15.39-58.21-27.2-95.5-33.4a54.07,54.07,0,0,0,8.55-6,42.72,42.72,0,0,0,15.37-33.44c0-8.25-3.93-16.38-10.95-22.89C282.69,131.84,266.53,126.87,249.07,128.1Z" fill="#999"/>
  <path d="M130.14,164.17a12.18,12.18,0,1,0,16.54-4.8h0A12.17,12.17,0,0,0,130.14,164.17Z" fill="#999"/>
</svg>
