<svg xmlns="http://www.w3.org/2000/svg" width="570.07" height="548.82" viewBox="0 0 570.07 548.82">
  <title>vacuna</title>
  <path d="M453.93,99.82,431.69,83a35.56,35.56,0,0,0-47.42,4l-40,42.42a8,8,0,0,0-2.18,5.54l.16,29a8,8,0,0,0,8,8h0a8,8,0,0,0,8-8.05h0L358.09,138l37.82-40.1A19.58,19.58,0,0,1,422,95.73l22.24,16.84A42.09,42.09,0,0,1,460.86,146l-.48,232.91-17,54.95a8.37,8.37,0,0,0-.35,2.58l2.31,87.28a8,8,0,0,0,8,7.79h.22a8,8,0,0,0,7.78-8.21h0l-2.27-86L476,382.5a7.79,7.79,0,0,0,.36-2.35l.48-234.1A58.14,58.14,0,0,0,453.93,99.82Z"/>
  <path d="M345.84,299.5c-17.36-19.59-48.61-32.27-49.93-32.8a8,8,0,0,0-6,14.84c.29.12,29.09,11.84,43.92,28.57,11.95,13.47,17.51,44.77,18.65,55.68a8,8,0,0,0,15.92-1.64C368.25,362.34,363.66,319.59,345.84,299.5Z"/>
  <path d="M401,135.83l-8.68,9.48a8,8,0,0,0-2.1,5.26l-.88,48.78a15.43,15.43,0,0,1-30.86-.18,7.7,7.7,0,0,0-.05-.83l-.07-12.92a8,8,0,0,0-8-8h0a8,8,0,0,0-8,8h0l.16,27.9a15.69,15.69,0,0,1-14.29,15.64,15.46,15.46,0,0,1-11.69-3.9c-2.84-2.53-5.43-5.68-6.1-9.34L308.48,124l47.18-42.24a21.84,21.84,0,0,1,22.76-3.9,8,8,0,0,0,6.1-14.8h0A38,38,0,0,0,345,69.85l-49.93,44.7a8,8,0,0,0-2.66,6.13l2,95.49a19.23,19.23,0,0,1-38.45,1l-2.89-98.63a23.62,23.62,0,0,1,10.69-20.39l48-31.12a23.66,23.66,0,0,1,22.32-1.87,8,8,0,0,0,6.36-14.69h0a39.66,39.66,0,0,0-33.47.91l-80.45-29.1a45.73,45.73,0,0,0-41.34,5.28L118.57,73.24l-.32.25a8,8,0,0,0-3.15,6.35V106a8,8,0,0,0,8,8h2.15v6.54h-2.38a18.69,18.69,0,0,0-18.68,18.68V251.67a18.69,18.69,0,0,0,18.68,18.68h1.44c-14.21,14.95-14.26,35-14.25,36a8,8,0,0,0,4.21,7c.38.2,38.14,20.55,61.31,33.69,10.19,5.78,14,14.7,19.83,28.19,4.62,10.72,10.37,24.08,21.15,39.45a95.21,95.21,0,0,0,59,38.67L270,522.89a8,8,0,0,0,7.34,8.61h0c.21,0,.43,0,.64,0a8,8,0,0,0,8-7.37l6.1-77a8,8,0,0,0-7.34-8.61h-.17c-.33,0-33.29-2.28-54.89-33.06-9.83-14-15-26-19.55-36.59-6.32-14.67-11.77-27.34-26.64-35.78-18.48-10.48-46.13-25.48-57-31.36,1.1-7.2,5.15-21.18,19.95-27.65,23.15-10.12,54.81,6.84,80.24,20.46,2.67,1.43,5.26,2.82,7.77,4.14,16.48,8.66,30.95,22.41,31.09,22.54a8,8,0,0,0,11.12-11.51l-.05-.05c-.63-.6-15.08-14.36-32.72-24.07,6-5.12,10.84-13.13,10.84-25.1v-.1l-.07-5.19a8,8,0,0,0-8-7.89h-.11a8,8,0,0,0-7.89,8.11l.07,5.12c0,11.12-7.15,15-11.33,16.26-6.06-3.21-12.51-6.5-19.19-9.54a18.67,18.67,0,0,0,8.47-15.63V139.21A18.69,18.69,0,0,0,198,120.53H195.6V114h2.16a8,8,0,0,0,8-8V89.23l3.66-1.4a16.82,16.82,0,0,1,14,.86l5.67,3a8,8,0,0,0,7.53-14.12l-5.67-3a32.86,32.86,0,0,0-27.26-1.68l-1.23.48a7.92,7.92,0,0,0-4.69-1.53H148.9l45.36-31.11A29.68,29.68,0,0,1,221.1,37.3l68.73,24.86L255.08,84.7a39.67,39.67,0,0,0-18,34.27L240,217.61a35.24,35.24,0,0,0,35.17,34.2c.57,0,1.14,0,1.72,0A35.08,35.08,0,0,0,304.68,236c.39.38.79.75,1.2,1.12a31.31,31.31,0,0,0,20.95,8c.9,0,1.81,0,2.72-.12a31.78,31.78,0,0,0,26.73-19.92,31.19,31.19,0,0,0,17.62,5.43,31.58,31.58,0,0,0,31.42-30.86l.82-45.75,6.64-7.25a8,8,0,0,0-11.8-10.8ZM200.67,139.2v13.33H133.25a8,8,0,0,0,0,16h67.42V223.6H133.25a8,8,0,0,0,0,16h67.42v12.07a2.7,2.7,0,0,1-2.69,2.68H122.87a2.68,2.68,0,0,1-2.68-2.68V139.21a2.68,2.68,0,0,1,2.68-2.68H198a2.7,2.7,0,0,1,2.69,2.68ZM179.6,120.53H141.25V114H179.6ZM189.76,98H131.1V87.84h58.66Z"/>
  <path d="M147.07,214.71a8,8,0,0,0,11.15.16l27.48-26a8,8,0,1,0-11-11.63h0L152.88,197.9l-6.58-6.58A8,8,0,0,0,135,202.63Z"/>
</svg>
